<?xml version="1.0" encoding="UTF-8" standalone="no"?>
<!-- Created with Inkscape (http://www.inkscape.org/) -->

<svg
   xmlns:dc="http://purl.org/dc/elements/1.1/"
   xmlns:cc="http://creativecommons.org/ns#"
   xmlns:rdf="http://www.w3.org/1999/02/22-rdf-syntax-ns#"
   xmlns:svg="http://www.w3.org/2000/svg"
   xmlns="http://www.w3.org/2000/svg"
   xmlns:sodipodi="http://sodipodi.sourceforge.net/DTD/sodipodi-0.dtd"
   xmlns:inkscape="http://www.inkscape.org/namespaces/inkscape"
   width="32"
   height="32"
   id="svg2"
   version="1.1"
   inkscape:version="0.48.2 r9819"
   sodipodi:docname="icon_base.svg">
  <defs
     id="defs4" />
  <sodipodi:namedview
     id="base"
     pagecolor="#ffffff"
     bordercolor="#666666"
     borderopacity="1.0"
     inkscape:pageopacity="0.0"
     inkscape:pageshadow="2"
     inkscape:zoom="7.9195959"
     inkscape:cx="-7.8413535"
     inkscape:cy="4.1091684"
     inkscape:document-units="px"
     inkscape:current-layer="text2985"
     showgrid="false"
     inkscape:window-width="1440"
     inkscape:window-height="846"
     inkscape:window-x="0"
     inkscape:window-y="26"
     inkscape:window-maximized="1" />
  <metadata
     id="metadata7">
    <rdf:RDF>
      <cc:Work
         rdf:about="">
        <dc:format>image/svg+xml</dc:format>
        <dc:type
           rdf:resource="http://purl.org/dc/dcmitype/StillImage" />
        <dc:title />
      </cc:Work>
    </rdf:RDF>
  </metadata>
  <g
     inkscape:label="Layer 1"
     inkscape:groupmode="layer"
     id="layer1"
     transform="translate(0,-1020.3622)">
    <g
       id="g2993"
       style="font-size:54.26322936999999769px;font-style:normal;font-weight:normal;line-height:125%;letter-spacing:0px;word-spacing:0px;fill:#cccccc;fill-opacity:1;stroke:#d1d0d0;font-family:Sans;stroke-opacity:1;stroke-width:1.50000000000000000;stroke-miterlimit:4;stroke-dasharray:none">
      <path
         id="path2995"
         style="font-variant:normal;font-stretch:normal;font-family:Scheherazade;-inkscape-font-specification:Scheherazade;stroke:#d1d0d0;stroke-opacity:1;fill:#cccccc;stroke-width:1.50000000000000000;stroke-miterlimit:4;stroke-dasharray:none"
         d="m 30.856826,1041.2579 c -2.7e-5,1.1305 -0.317975,2.1461 -0.953846,3.047 -0.635923,0.8832 -1.483785,1.6692 -2.543589,2.3581 -1.059851,0.6712 -2.287485,1.2453 -3.682905,1.7222 -1.395459,0.477 -2.861554,0.8656 -4.398289,1.1658 -1.519101,0.3003 -3.055851,0.5211 -4.610254,0.6624 -1.554425,0.1413 -3.029352,0.212 -4.424785,0.212 -0.317955,0 -0.5829119,0 -0.7948718,0 -0.1943074,-0.018 -0.3709453,-0.035 -0.5299144,-0.053 -0.1413154,-0.018 -0.2737939,-0.044 -0.3974357,-0.08 -0.1236513,-0.035 -0.2561297,-0.079 -0.3974358,-0.1325 -0.1236508,-0.035 -0.3797759,-0.1943 -0.7683758,-0.4769 -0.3709432,-0.3003 -0.7683786,-0.627 -1.1923073,-0.9803 -0.4062696,-0.3533 -0.7683774,-0.6889 -1.0863244,-1.0069 -0.3179495,-0.3179 -0.4769237,-0.5299 -0.4769229,-0.6359 -8e-7,-0.1413 0.088318,-0.2119 0.2649572,-0.2119 0.4592576,0 0.8743567,0.018 1.2452987,0.053 0.3886012,0.035 0.7595408,0.08 1.1128201,0.1325 0.3709363,0.053 0.741876,0.097 1.1128201,0.1324 0.388599,0.035 0.821362,0.053 1.2982902,0.053 1.2011318,0 2.2609598,-0.097 3.1794858,-0.2914 0.918509,-0.212 1.704547,-0.6536 2.358119,-1.3248 0.105972,-0.265 0.203122,-0.5829 0.291453,-0.9539 0.08831,-0.3709 0.158963,-0.733 0.211966,-1.0863 0.07064,-0.3709 0.123634,-0.7154 0.158974,-1.0333 0.03532,-0.318 0.05298,-0.5653 0.05299,-0.7419 -1.3e-5,-0.9362 -0.01768,-1.7752 -0.05299,-2.5171 -0.01768,-0.7419 -0.06184,-1.4484 -0.132479,-2.1197 -0.07067,-0.6712 -0.150154,-1.3336 -0.238461,-1.9871 -0.08833,-0.6536 -0.203145,-1.3513 -0.344444,-2.0932 -0.123658,-0.7772 -0.264968,-1.5367 -0.423932,-2.2786 -0.141321,-0.7419 -0.282631,-1.4308 -0.423931,-2.0667 -0.123657,-0.6359 -0.22964,-1.1923 -0.317949,-1.6692 -0.08833,-0.4769 -0.132488,-0.8479 -0.132478,-1.1128 -1e-5,-0.2296 0.04415,-0.5299 0.132478,-0.9009 0.105973,-0.3886 0.229619,-0.7595 0.37094,-1.1128 0.1413,-0.3709 0.28261,-0.6889 0.423932,-0.9539 0.158963,-0.2649 0.300273,-0.3974 0.423931,-0.3974 0.07064,0 0.220786,0.159 0.450427,0.4769 0.247282,0.318 0.494575,0.6713 0.74188,1.0599 0.264945,0.3886 0.494574,0.7507 0.688889,1.0863 0.194289,0.318 0.273776,0.4946 0.238462,0.5299 -0.141324,0.106 -0.291467,0.2385 -0.450428,0.3974 -0.141323,0.1414 -0.273801,0.3268 -0.397435,0.5564 -0.105996,0.212 -0.203147,0.4682 -0.291453,0.7684 -0.07067,0.3003 -0.105995,0.6536 -0.105983,1.0598 -1.2e-5,0.318 0.05298,0.8391 0.158974,1.5633 0.123634,0.7066 0.247281,1.5103 0.37094,2.4111 0.141298,0.8832 0.264944,1.8194 0.37094,2.8085 0.123634,0.9716 0.185457,1.8901 0.18547,2.7556 -1.3e-5,0.318 -0.0088,0.7242 -0.0265,1.2188 -0.01768,0.4946 -0.04417,1.0157 -0.07949,1.5633 -0.01768,0.5475 -0.053,1.0951 -0.105982,1.6427 -0.03534,0.5299 -0.0795,0.9892 -0.132479,1.3778 0.883177,-0.9009 1.78403,-1.7487 2.702563,-2.5436 0.918502,-0.8126 1.819355,-1.5191 2.702563,-2.1197 0.883172,-0.6005 1.731034,-1.0775 2.543589,-1.4308 0.830178,-0.3532 1.580889,-0.5299 2.252136,-0.5299 0.635874,0 1.192283,0.106 1.66923,0.318 0.476898,0.212 0.874333,0.5034 1.192308,0.8743 0.335586,0.371 0.582879,0.8038 0.74188,1.2983 0.176611,0.477 0.26493,0.9892 0.264957,1.5368 m -1.960683,1.6692 c -2.5e-5,-0.2473 -0.11484,-0.4769 -0.344445,-0.6889 -0.229654,-0.2296 -0.521106,-0.4239 -0.874358,-0.5829 -0.335636,-0.1766 -0.706576,-0.3091 -1.11282,-0.3974 -0.40629,-0.106 -0.786062,-0.159 -1.139316,-0.159 -0.724237,0 -1.492612,0.08 -2.305128,0.2385 -0.79489,0.159 -1.607424,0.4592 -2.437606,0.9008 -0.812551,0.424 -1.633917,1.0245 -2.464101,1.8017 -0.812549,0.7596 -1.60742,1.7488 -2.384615,2.9676 2.313945,-0.1414 4.29229,-0.4151 5.935041,-0.8214 1.660378,-0.4063 3.011659,-0.839 4.053845,-1.2983 1.059805,-0.4593 1.837012,-0.8744 2.331623,-1.2453 0.494562,-0.3886 0.741855,-0.6271 0.74188,-0.7154" />
    </g>
    <g
       style="font-size:36.59912491px;font-style:normal;font-weight:normal;line-height:125%;letter-spacing:0px;word-spacing:0px;fill:#cccccc;fill-opacity:1;stroke:none;font-family:Sans"
       id="text2985">
      <path
         d="m 0.31924111,1042.6229 c -2.93e-6,-0.4766 0.0595659,-0.8697 0.17870667,-1.1795 0.11913455,-0.3217 0.27997038,-0.5778 0.48250799,-0.7684 0.21444423,-0.1907 0.45867643,-0.3277 0.73269733,-0.4111 0.2859261,-0.083 0.5897271,-0.1251 0.911404,-0.1251 0.3097527,0 0.6016399,0.042 0.8756626,0.1251 0.2859243,0.083 0.5301565,0.2204 0.7326974,0.4111 0.2144409,0.1906 0.3812336,0.4467 0.5003786,0.7684 0.1310441,0.3098 0.1965698,0.7029 0.1965774,1.1795 -7.6e-6,0.4646 -0.065533,0.8577 -0.1965774,1.1794 -0.119145,0.3217 -0.2859377,0.5778 -0.5003786,0.7685 -0.2025409,0.1906 -0.4467731,0.3276 -0.7326974,0.411 -0.2740227,0.083 -0.5659099,0.1251 -0.8756626,0.1251 -0.3216769,0 -0.6254779,-0.042 -0.911404,-0.1251 -0.2740209,-0.083 -0.5182531,-0.2204 -0.73269733,-0.411 -0.20253761,-0.1907 -0.36337344,-0.4468 -0.48250799,-0.7685 -0.11914077,-0.3217 -0.1787096,-0.7148 -0.17870667,-1.1794"
         style="font-variant:normal;font-stretch:normal;fill:#cccccc;font-family:Serif;-inkscape-font-specification:Serif"
         id="path3766" />
      <path
         d="m 14.792172,1043.2841 c 0.4408,0 0.845868,-0.024 1.215205,-0.072 0.369316,-0.048 0.7446,-0.1072 1.125852,-0.1787 l 0,1.6083 c -0.154891,0.072 -0.357425,0.143 -0.607602,0.2145 -0.250201,0.072 -0.524217,0.131 -0.822051,0.1787 -0.285941,0.06 -0.589742,0.1013 -0.911404,0.1251 -0.321681,0.036 -0.625482,0.054 -0.911404,0.054 -0.929282,0 -1.727505,-0.1013 -2.394669,-0.3038 -0.667178,-0.1906 -1.215211,-0.5063 -1.6441016,-0.9471 -0.4289003,-0.4409 -0.750572,-1.0246 -0.965016,-1.7514 -0.2025378,-0.7267 -0.3038048,-1.6143 -0.3038013,-2.6627 l 0,-12.2235 -2.787824,0 0,-1.4654 c 0.4408087,0 0.9233162,-0.089 1.447524,-0.2681 0.5361173,-0.1787 1.0067111,-0.4765 1.4117827,-0.8935 0.4169782,-0.4527 0.7505636,-0.9888 1.0007573,-1.6084 0.2620983,-0.6314 0.4884599,-1.4177 0.6790849,-2.3589 l 1.679843,0 0,4.5034 4.789339,0 0,2.0909 -4.789339,0 0,12.3307 c -7e-6,1.251 0.250182,2.1683 0.750568,2.7521 0.512284,0.5838 1.191369,0.8757 2.037256,0.8757"
         style="font-variant:normal;font-stretch:normal;fill:#cccccc;font-family:Serif;-inkscape-font-specification:Serif"
         id="path3768" />
    </g>
    <g
       style="font-size:54.26322937px;font-style:normal;font-weight:normal;line-height:125%;letter-spacing:0px;word-spacing:0px;fill:#000000;fill-opacity:1;stroke:none;font-family:Sans"
       id="text2989">
      <path
         d="m 30.856826,1041.2579 c -2.7e-5,1.1305 -0.317975,2.1461 -0.953846,3.047 -0.635923,0.8832 -1.483785,1.6692 -2.543589,2.3581 -1.059851,0.6712 -2.287485,1.2453 -3.682905,1.7222 -1.395459,0.477 -2.861554,0.8656 -4.398289,1.1658 -1.519101,0.3003 -3.055851,0.5211 -4.610254,0.6624 -1.554425,0.1413 -3.029352,0.212 -4.424785,0.212 -0.317955,0 -0.5829119,0 -0.7948718,0 -0.1943074,-0.018 -0.3709453,-0.035 -0.5299144,-0.053 -0.1413154,-0.018 -0.2737939,-0.044 -0.3974357,-0.08 -0.1236513,-0.035 -0.2561297,-0.079 -0.3974358,-0.1325 -0.1236508,-0.035 -0.3797759,-0.1943 -0.7683758,-0.4769 -0.3709432,-0.3003 -0.7683786,-0.627 -1.1923073,-0.9803 -0.4062696,-0.3533 -0.7683774,-0.6889 -1.0863244,-1.0069 -0.3179495,-0.3179 -0.4769237,-0.5299 -0.4769229,-0.6359 -8e-7,-0.1413 0.088318,-0.2119 0.2649572,-0.2119 0.4592576,0 0.8743567,0.018 1.2452987,0.053 0.3886012,0.035 0.7595408,0.08 1.1128201,0.1325 0.3709363,0.053 0.741876,0.097 1.1128201,0.1324 0.388599,0.035 0.821362,0.053 1.2982902,0.053 1.2011318,0 2.2609598,-0.097 3.1794858,-0.2914 0.918509,-0.212 1.704547,-0.6536 2.358119,-1.3248 0.105972,-0.265 0.203122,-0.5829 0.291453,-0.9539 0.08831,-0.3709 0.158963,-0.733 0.211966,-1.0863 0.07064,-0.3709 0.123634,-0.7154 0.158974,-1.0333 0.03532,-0.318 0.05298,-0.5653 0.05299,-0.7419 -1.3e-5,-0.9362 -0.01768,-1.7752 -0.05299,-2.5171 -0.01768,-0.7419 -0.06184,-1.4484 -0.132479,-2.1197 -0.07067,-0.6712 -0.150154,-1.3336 -0.238461,-1.9871 -0.08833,-0.6536 -0.203145,-1.3513 -0.344444,-2.0932 -0.123658,-0.7772 -0.264968,-1.5367 -0.423932,-2.2786 -0.141321,-0.7419 -0.282631,-1.4308 -0.423931,-2.0667 -0.123657,-0.6359 -0.22964,-1.1923 -0.317949,-1.6692 -0.08833,-0.4769 -0.132488,-0.8479 -0.132478,-1.1128 -1e-5,-0.2296 0.04415,-0.5299 0.132478,-0.9009 0.105973,-0.3886 0.229619,-0.7595 0.37094,-1.1128 0.1413,-0.3709 0.28261,-0.6889 0.423932,-0.9539 0.158963,-0.2649 0.300273,-0.3974 0.423931,-0.3974 0.07064,0 0.220786,0.159 0.450427,0.4769 0.247282,0.318 0.494575,0.6713 0.74188,1.0599 0.264945,0.3886 0.494574,0.7507 0.688889,1.0863 0.194289,0.318 0.273776,0.4946 0.238462,0.5299 -0.141324,0.106 -0.291467,0.2385 -0.450428,0.3974 -0.141323,0.1414 -0.273801,0.3268 -0.397435,0.5564 -0.105996,0.212 -0.203147,0.4682 -0.291453,0.7684 -0.07067,0.3003 -0.105995,0.6536 -0.105983,1.0598 -1.2e-5,0.318 0.05298,0.8391 0.158974,1.5633 0.123634,0.7066 0.247281,1.5103 0.37094,2.4111 0.141298,0.8832 0.264944,1.8194 0.37094,2.8085 0.123634,0.9716 0.185457,1.8901 0.18547,2.7556 -1.3e-5,0.318 -0.0088,0.7242 -0.0265,1.2188 -0.01768,0.4946 -0.04417,1.0157 -0.07949,1.5633 -0.01768,0.5475 -0.053,1.0951 -0.105982,1.6427 -0.03534,0.5299 -0.0795,0.9892 -0.132479,1.3778 0.883177,-0.9009 1.78403,-1.7487 2.702563,-2.5436 0.918502,-0.8126 1.819355,-1.5191 2.702563,-2.1197 0.883172,-0.6005 1.731034,-1.0775 2.543589,-1.4308 0.830178,-0.3532 1.580889,-0.5299 2.252136,-0.5299 0.635874,0 1.192283,0.106 1.66923,0.318 0.476898,0.212 0.874333,0.5034 1.192308,0.8743 0.335586,0.371 0.582879,0.8038 0.74188,1.2983 0.176611,0.477 0.26493,0.9892 0.264957,1.5368 m -1.960683,1.6692 c -2.5e-5,-0.2473 -0.11484,-0.4769 -0.344445,-0.6889 -0.229654,-0.2296 -0.521106,-0.4239 -0.874358,-0.5829 -0.335636,-0.1766 -0.706576,-0.3091 -1.11282,-0.3974 -0.40629,-0.106 -0.786062,-0.159 -1.139316,-0.159 -0.724237,0 -1.492612,0.08 -2.305128,0.2385 -0.79489,0.159 -1.607424,0.4592 -2.437606,0.9008 -0.812551,0.424 -1.633917,1.0245 -2.464101,1.8017 -0.812549,0.7596 -1.60742,1.7488 -2.384615,2.9676 2.313945,-0.1414 4.29229,-0.4151 5.935041,-0.8214 1.660378,-0.4063 3.011659,-0.839 4.053845,-1.2983 1.059805,-0.4593 1.837012,-0.8744 2.331623,-1.2453 0.494562,-0.3886 0.741855,-0.6271 0.74188,-0.7154"
         style="font-variant:normal;font-stretch:normal;font-family:Scheherazade;-inkscape-font-specification:Scheherazade"
         id="path2991" />
    </g>
  </g>
</svg>
